<?xml version="1.0" encoding="utf-8"?>
<!-- Generator: Adobe Illustrator 18.1.1, SVG Export Plug-In . SVG Version: 6.00 Build 0)  -->
<svg version="1.1" id="Layer_1" xmlns="http://www.w3.org/2000/svg" xmlns:xlink="http://www.w3.org/1999/xlink" x="0px" y="0px"
	 viewBox="0 0 208.8 52.5" enable-background="new 0 0 208.8 52.5" xml:space="preserve">
<g>
	<g>
		<path fill="#8494B2" d="M0.1,12c-0.2-0.4,0-0.7,0.3-0.8c0.3-0.2,0.7,0,0.8,0.3l1,2.4c0.2,0.3-0.1,0.7-0.4,0.8
			c-0.1,0.1-0.2,0.1-0.3,0.1c-0.2,0-0.5-0.1-0.6-0.4L0.1,12z M2,16.7c-0.2-0.3,0-0.7,0.4-0.8c0.3-0.2,0.7,0,0.8,0.3l1,2.4
			c0.2,0.4-0.1,0.7-0.4,0.9c-0.1,0.1-0.1,0.1-0.3,0.1c-0.2,0-0.4-0.1-0.6-0.4L2,16.7z M4.1,21.6c-0.1-0.4,0-0.7,0.4-0.8
			c0.3-0.2,0.7,0,0.8,0.3l1,2.4c0.2,0.3,0,0.7-0.4,0.8c-0.1,0-0.1,0.1-0.2,0.1c-0.3,0-0.5-0.3-0.6-0.5L4.1,21.6z M6.1,26.3
			c-0.2-0.3,0-0.7,0.3-0.8c0.3-0.1,0.7,0,0.8,0.4l1,2.3c0.2,0.4,0,0.7-0.4,0.9H7.7c-0.3,0-0.5-0.2-0.6-0.4L6.1,26.3z M8.1,31.1
			c-0.2-0.4,0-0.7,0.3-0.8c0.3-0.2,0.7,0,0.8,0.3l1,2.4c0.2,0.3,0,0.7-0.3,0.8c-0.2,0.1-0.2,0.1-0.3,0.1c-0.3,0-0.5-0.1-0.7-0.4
			L8.1,31.1z M10.5,36.3c-0.1-0.1-0.1-0.1-0.1-0.1c-0.1-0.1-0.2-0.2-0.2-0.3l-0.1-0.1c-0.1-0.3,0-0.7,0.4-0.8c0.1-0.1,0.3-0.1,0.4,0
			H11c0.3,0.2,0.5,0.5,0.4,0.8L11.4,36c-0.1,0.2-0.2,0.3-0.4,0.4c-0.1,0.1-0.1,0.1-0.2,0.1h-0.1h-0.1C10.6,36.4,10.5,36.4,10.5,36.3
			L10.5,36.3z M11.2,33l0.9-2.4c0.2-0.3,0.6-0.5,0.9-0.3c0.3,0.1,0.5,0.5,0.4,0.8l-1,2.4c-0.1,0.3-0.3,0.4-0.6,0.4
			c-0.1,0-0.2,0-0.3-0.1C11.2,33.7,11,33.3,11.2,33z M13.6,29.1c-0.4-0.2-0.5-0.5-0.4-0.9l1-2.3c0.1-0.4,0.5-0.5,0.8-0.4
			c0.4,0.1,0.5,0.5,0.4,0.8l-1,2.4c-0.1,0.2-0.3,0.4-0.6,0.4H13.6z M15.3,23.4l0.9-2.4c0.2-0.3,0.5-0.5,0.9-0.4
			c0.3,0.2,0.5,0.5,0.4,0.9l-1,2.3c-0.1,0.2-0.3,0.5-0.6,0.5c-0.1,0-0.2-0.1-0.3-0.1C15.3,24.1,15.1,23.8,15.3,23.4z M17.3,18.6
			l1-2.4c0.1-0.3,0.5-0.5,0.8-0.3c0.4,0.2,0.5,0.5,0.4,0.8l-1.1,2.4c-0.1,0.3-0.3,0.4-0.6,0.4c-0.1,0-0.2,0-0.3-0.1
			C17.3,19.3,17.1,19,17.3,18.6z M19.3,13.8l0.9-2.4c0.3-0.3,0.6-0.5,0.9-0.3c0.3,0.1,0.5,0.5,0.3,0.8l-1,2.4
			c-0.1,0.3-0.4,0.4-0.6,0.4c-0.1,0-0.2,0-0.3-0.1C19.3,14.5,19.1,14.1,19.3,13.8z"/>
		<path fill="#8494B2" d="M32.3,3.3c0-0.4,0.3-0.7,0.7-0.7s0.7,0.3,0.7,0.7v1.2c0,0.4-0.3,0.7-0.7,0.7s-0.7-0.3-0.7-0.7V3.3z
			 M32.3,11.5c0-0.4,0.3-0.7,0.7-0.7s0.7,0.3,0.7,0.7v2.7c0,0.3-0.3,0.7-0.7,0.7s-0.7-0.4-0.7-0.7V11.5z M32.3,16.9
			c0-0.4,0.3-0.7,0.7-0.7s0.7,0.3,0.7,0.7v2.7c0,0.3-0.3,0.7-0.7,0.7s-0.7-0.4-0.7-0.7V16.9z M32.3,22.2c0-0.4,0.3-0.7,0.7-0.7
			s0.7,0.3,0.7,0.7v2.7c0,0.3-0.3,0.7-0.7,0.7s-0.7-0.4-0.7-0.7V22.2z M32.3,27.6c0-0.4,0.3-0.7,0.7-0.7s0.7,0.3,0.7,0.7v2.7
			c0,0.3-0.3,0.6-0.7,0.6s-0.7-0.3-0.7-0.6V27.6z M32.3,33c0-0.4,0.3-0.7,0.7-0.7s0.7,0.3,0.7,0.7v2.7c0,0.4-0.3,0.7-0.7,0.7
			s-0.7-0.3-0.7-0.7V33z"/>
		<path fill="#8494B2" d="M45.1,23.9v-0.1c0-0.4,0.3-0.7,0.7-0.7s0.6,0.3,0.6,0.7v0.1c0,0.8,0.2,1.6,0.3,2.3
			c0.1,0.4-0.2,0.7-0.5,0.8H46c-0.4,0-0.6-0.2-0.7-0.5C45.3,25.6,45.1,24.7,45.1,23.9z M45.9,21.7c-0.4-0.1-0.6-0.4-0.5-0.8
			c0.2-0.9,0.5-1.8,0.9-2.6c0.2-0.4,0.5-0.5,0.9-0.4c0.3,0.2,0.5,0.6,0.3,0.9c-0.3,0.7-0.6,1.5-0.8,2.3c-0.1,0.4-0.4,0.5-0.7,0.5
			H45.9z M46.3,29.2c-0.2-0.4,0-0.7,0.3-0.9c0.3-0.2,0.7,0,0.8,0.3c0.4,0.8,0.8,1.5,1.2,2.2c0.3,0.3,0.2,0.7-0.1,0.9
			c-0.1,0.1-0.2,0.1-0.4,0.1c-0.2,0-0.4-0.1-0.5-0.3C47.1,30.8,46.6,29.9,46.3,29.2z M47.8,16c0.6-0.7,1.2-1.4,2-2
			c0.3-0.2,0.7-0.2,0.9,0.1c0.2,0.3,0.2,0.7-0.2,0.9c-0.6,0.5-1.2,1.1-1.7,1.8c-0.1,0.2-0.3,0.2-0.5,0.2c-0.1,0-0.3,0-0.4-0.1
			C47.7,16.7,47.6,16.3,47.8,16z M49.5,33.5c-0.3-0.3-0.3-0.6-0.1-0.9c0.3-0.4,0.6-0.4,0.9-0.2c0.7,0.6,1.4,1,2.1,1.4
			c0.3,0.2,0.5,0.6,0.3,0.9c-0.1,0.2-0.4,0.3-0.6,0.3c-0.2,0-0.2,0-0.4-0.1C51,34.7,50.3,34.1,49.5,33.5z M52.1,12.5
			c0.9-0.5,1.7-0.7,2.7-0.9c0.4-0.1,0.7,0.2,0.8,0.5c0.1,0.4-0.1,0.7-0.5,0.8c-0.8,0.2-1.6,0.5-2.3,0.9c-0.1,0-0.2,0.1-0.3,0.1
			c-0.3,0-0.5-0.2-0.6-0.4C51.7,13,51.8,12.6,52.1,12.5z M54.5,36.1c-0.4-0.1-0.6-0.5-0.5-0.8c0.1-0.3,0.5-0.6,0.8-0.4
			c0.7,0.2,1.6,0.3,2.4,0.3c0.4,0,0.7,0.3,0.7,0.6c0,0.4-0.3,0.7-0.7,0.7C56.2,36.4,55.4,36.2,54.5,36.1z M59.9,13
			c-0.8-0.2-1.6-0.4-2.4-0.4c-0.4,0-0.6-0.3-0.6-0.7c0-0.4,0.3-0.6,0.6-0.6c1,0,1.9,0.2,2.8,0.4c0.4,0.1,0.6,0.4,0.5,0.8
			c-0.1,0.3-0.4,0.5-0.6,0.5H59.9z M59.7,34.8c0.8-0.2,1.6-0.5,2.3-0.9c0.3-0.1,0.7,0,0.9,0.3c0.2,0.3,0,0.7-0.3,0.9
			c-0.8,0.4-1.7,0.7-2.5,0.9c-0.1,0.1-0.2,0.1-0.2,0.1c-0.3,0-0.5-0.2-0.6-0.5C59.1,35.2,59.4,34.9,59.7,34.8z M62.3,13.9
			c-0.4-0.2-0.5-0.6-0.3-0.9c0.2-0.4,0.6-0.5,0.8-0.3c0.9,0.5,1.7,1,2.3,1.6c0.3,0.3,0.3,0.7,0.1,0.9c-0.2,0.2-0.4,0.3-0.5,0.3
			c-0.2,0-0.3-0.1-0.4-0.2C63.6,14.8,63,14.3,62.3,13.9z M64.1,32.5c0.6-0.5,1.2-1.1,1.7-1.8c0.2-0.3,0.6-0.3,0.9-0.1
			c0.3,0.2,0.3,0.6,0.1,0.9c-0.6,0.7-1.2,1.5-1.9,2.1c-0.2,0.1-0.4,0.1-0.5,0.1c-0.2,0-0.4-0.1-0.5-0.3
			C63.8,33.2,63.8,32.8,64.1,32.5z M66,17.2c-0.2-0.3-0.2-0.7,0.1-0.9c0.4-0.2,0.7-0.2,0.9,0.2c0.4,0.6,0.8,1.2,1.1,1.8v-1.8
			c0-0.4,0.3-0.7,0.6-0.7s0.7,0.3,0.7,0.7v2.7c0,0.3-0.3,0.6-0.7,0.6c-0.2,0-0.4-0.1-0.5-0.3c-0.1,0.1-0.1,0.1-0.2,0.2
			c-0.1,0.1-0.2,0.1-0.3,0.1c-0.3,0-0.5-0.1-0.6-0.4C66.8,18.5,66.4,17.8,66,17.2z M68.1,29.4c-0.1,0.1-0.3,0.2-0.5,0.2
			c-0.1,0-0.2-0.1-0.3-0.1C67,29.4,66.9,29,67,28.7c0.1-0.2,0.1-0.3,0.2-0.4c0.1-0.3,0.5-0.5,0.8-0.3c0,0,0.1,0.1,0.1,0.1v-1
			c0-0.4,0.3-0.7,0.6-0.7s0.7,0.3,0.7,0.7v2.7c0,0.3-0.3,0.6-0.7,0.6s-0.6-0.3-0.6-0.6V29.4z M68.1,0.7c0-0.4,0.3-0.7,0.6-0.7
			s0.7,0.3,0.7,0.7v2.6c0,0.4-0.3,0.7-0.7,0.7s-0.6-0.3-0.6-0.7V0.7z M68.1,5.9c0-0.4,0.3-0.7,0.6-0.7s0.7,0.3,0.7,0.7v2.7
			c0,0.3-0.3,0.7-0.7,0.7s-0.6-0.4-0.6-0.7V5.9z M68.1,11.2c0-0.4,0.3-0.7,0.6-0.7s0.7,0.3,0.7,0.7v2.6c0,0.4-0.3,0.7-0.7,0.7
			s-0.6-0.3-0.6-0.7V11.2z M68.1,21.7c0-0.4,0.3-0.6,0.6-0.6s0.7,0.3,0.7,0.6v2.7c0,0.4-0.3,0.7-0.7,0.7s-0.6-0.3-0.6-0.7V21.7z
			 M68.1,32.3c0-0.4,0.3-0.6,0.6-0.6s0.7,0.3,0.7,0.6v2.7c0,0.3-0.3,0.7-0.7,0.7s-0.6-0.4-0.6-0.7V32.3z"/>
		<path fill="#8494B2" d="M81.5,0.7c0-0.4,0.3-0.7,0.7-0.7c0.4,0,0.7,0.3,0.7,0.7v2.7c0,0.3-0.3,0.7-0.7,0.7c-0.4,0-0.7-0.4-0.7-0.7
			V0.7z M81.5,6.1c0-0.4,0.3-0.7,0.7-0.7c0.4,0,0.7,0.3,0.7,0.7v2.7c0,0.3-0.3,0.6-0.7,0.6c-0.4,0-0.7-0.3-0.7-0.6V6.1z M81.5,11.4
			c0-0.4,0.3-0.7,0.7-0.7c0.4,0,0.7,0.3,0.7,0.7v2.7c0,0.4-0.3,0.7-0.7,0.7c-0.4,0-0.7-0.3-0.7-0.7V11.4z M81.5,16.8
			c0-0.4,0.3-0.7,0.7-0.7c0.4,0,0.7,0.3,0.7,0.7v2.7c0,0.3-0.3,0.7-0.7,0.7c-0.4,0-0.7-0.4-0.7-0.7V16.8z M81.5,22.2
			c0-0.4,0.3-0.7,0.7-0.7c0.4,0,0.7,0.3,0.7,0.7v2.7c0,0.3-0.3,0.7-0.7,0.7c-0.4,0-0.7-0.4-0.7-0.7V22.2z M81.5,27.6
			c0-0.4,0.3-0.6,0.7-0.6c0.4,0,0.7,0.3,0.7,0.6v2.7c0,0.4-0.3,0.7-0.7,0.7c-0.4,0-0.7-0.3-0.7-0.7V27.6z M81.5,33
			c0-0.4,0.3-0.7,0.7-0.7c0.4,0,0.7,0.3,0.7,0.7v2.7c0,0.4-0.3,0.7-0.7,0.7c-0.4,0-0.7-0.3-0.7-0.7V33z"/>
		<path fill="#8494B2" d="M95.3,11.3c0-0.4,0.3-0.7,0.7-0.7c0.3,0,0.6,0.3,0.6,0.7v1.8c0,0.3-0.3,0.7-0.6,0.7
			c-0.4,0-0.7-0.4-0.7-0.7V11.3z M95.3,15.7c0-0.4,0.3-0.7,0.7-0.7c0.3,0,0.6,0.3,0.6,0.7v2.6c0,0.4-0.3,0.7-0.6,0.7
			c-0.4,0-0.7-0.3-0.7-0.7V15.7z M95.3,21c0-0.4,0.3-0.7,0.7-0.7c0.3,0,0.6,0.3,0.6,0.7v2.7c0,0.3-0.3,0.6-0.6,0.6
			c-0.4,0-0.7-0.3-0.7-0.6V21z M95.3,26.2c0-0.3,0.3-0.6,0.7-0.6c0.3,0,0.6,0.3,0.6,0.6c0,0.8,0.2,1.7,0.4,2.4
			c0.1,0.4-0.1,0.7-0.5,0.8h-0.2c-0.3,0-0.5-0.1-0.6-0.5C95.5,28.2,95.3,27.2,95.3,26.2z M97,31.6c-0.2-0.4-0.2-0.7,0.2-0.9
			c0.4-0.2,0.7-0.1,0.9,0.2c0.5,0.7,1,1.3,1.6,1.8c0.3,0.3,0.3,0.7,0.1,0.9c-0.2,0.2-0.4,0.3-0.5,0.3c-0.2,0-0.3-0.1-0.4-0.2
			C98.1,33.1,97.5,32.4,97,31.6z M100.5,46.5c-0.3-0.1-0.5-0.5-0.5-0.8c0.2-0.4,0.5-0.6,0.8-0.5c0.8,0.2,1.7,0.3,2.5,0.4
			c0.4,0,0.6,0.3,0.6,0.6c0,0.4-0.4,0.7-0.7,0.7C102.3,46.9,101.3,46.8,100.5,46.5z M103.8,36.1c-1-0.2-1.8-0.5-2.7-0.8
			c-0.3-0.2-0.4-0.6-0.3-0.9c0.2-0.3,0.5-0.5,0.9-0.3c0.7,0.3,1.5,0.6,2.3,0.7c0.4,0.1,0.6,0.4,0.5,0.8c-0.1,0.3-0.3,0.5-0.6,0.5
			H103.8z M105.8,45.5c0.9-0.2,1.7-0.4,2.4-0.7c0.3-0.2,0.7,0,0.8,0.3c0.2,0.4,0,0.7-0.3,0.9c-0.8,0.4-1.7,0.6-2.7,0.8h-0.1
			c-0.4,0-0.6-0.3-0.7-0.5C105.2,45.8,105.4,45.5,105.8,45.5z M106.4,34.9c0.8-0.1,1.7-0.3,2.4-0.6c0.3-0.2,0.6,0.1,0.8,0.4
			c0.1,0.3,0,0.7-0.3,0.8c-0.9,0.3-1.8,0.5-2.8,0.7h-0.1c-0.3,0-0.6-0.3-0.6-0.6C105.9,35.3,106.1,34.9,106.4,34.9z M110.3,43.5
			c0.6-0.5,1.2-1,1.8-1.7c0.2-0.3,0.6-0.3,0.9-0.1c0.3,0.2,0.3,0.6,0.1,0.9c-0.6,0.7-1.2,1.4-2,1.9c-0.2,0.1-0.3,0.2-0.4,0.2
			c-0.3,0-0.5-0.1-0.5-0.3C109.9,44.2,110,43.7,110.3,43.5z M111,33.2c0.7-0.5,1.2-1,1.8-1.7c0.2-0.3,0.6-0.3,0.9-0.1
			c0.3,0.3,0.3,0.6,0.1,1c-0.5,0.7-1.2,1.4-2,1.9c-0.1,0.2-0.3,0.2-0.4,0.2c-0.2,0-0.4-0.1-0.5-0.3C110.6,33.8,110.7,33.4,111,33.2z
			 M113.4,39.8c0.4-0.7,0.7-1.5,0.9-2.3c0.1-0.4,0.4-0.6,0.8-0.5c0.3,0.1,0.5,0.5,0.5,0.8c-0.2,0.9-0.5,1.8-1,2.6
			c-0.1,0.2-0.3,0.3-0.5,0.3c-0.2,0-0.3,0-0.4-0.1C113.4,40.5,113.3,40.1,113.4,39.8z M113.9,29.4c0.4-0.7,0.5-1.5,0.6-2.4
			c0.1-0.3,0.4-0.6,0.7-0.6s0.6,0.3,0.6,0.6v2.7c0,0.4-0.3,0.7-0.6,0.7c-0.2,0-0.3-0.1-0.5-0.2c-0.1,0.1-0.2,0.1-0.2,0.1
			c-0.2,0-0.2,0-0.3-0.1C114,30.1,113.8,29.7,113.9,29.4z M114.6,13.9v-2.6v-0.1c0.1-0.3,0.3-0.6,0.7-0.6h0.1c0.1,0,0.1,0.1,0.2,0.1
			c0.1,0.1,0.2,0.2,0.2,0.2c0.1,0.1,0.2,0.3,0.2,0.4v2.6c0,0.1,0,0.2-0.1,0.3c-0.1,0.3-0.3,0.4-0.6,0.4h-0.2
			c-0.1-0.1-0.1-0.1-0.2-0.1c-0.1-0.1-0.2-0.1-0.3-0.2c0-0.1-0.1-0.2-0.1-0.2V13.9z M114.6,19.2v-2.7v-0.1v-0.1
			c0.1-0.1,0.1-0.1,0.1-0.2c0.1-0.2,0.2-0.3,0.3-0.3c0.1,0,0.1-0.1,0.2-0.1h0.1h0.1c0.2,0.1,0.3,0.2,0.4,0.3
			c0.1,0.1,0.1,0.2,0.1,0.2c0,0.1,0.1,0.1,0.1,0.1v0.1v2.7c0,0.1-0.1,0.2-0.1,0.3l-0.1,0.1c0,0.1-0.1,0.1-0.1,0.1
			c-0.1,0-0.1,0.1-0.2,0.1c0,0,0,0.1-0.1,0.1h-0.2h-0.1c-0.1,0-0.3-0.1-0.3-0.1l-0.2-0.2c-0.1,0-0.1-0.1-0.1-0.1
			c-0.1-0.1-0.1-0.1-0.1-0.2V19.2z M114.6,24.4v-2.7v-0.1v-0.1c0.1-0.1,0.1-0.2,0.2-0.3c0.1,0,0.1-0.1,0.1-0.1
			c0.1-0.1,0.3-0.2,0.4-0.2c0.2,0,0.4,0.1,0.5,0.3c0.1,0.1,0.1,0.1,0.1,0.2c0,0.1,0.1,0.1,0.1,0.1v0.1v2.7v0.2c0,0-0.1,0.1-0.1,0.1
			c0,0.1-0.1,0.2-0.2,0.3c-0.1,0-0.1,0.1-0.2,0.1c-0.1,0.1-0.1,0.1-0.2,0.1h-0.1c-0.2,0-0.3-0.1-0.4-0.1c-0.2-0.1-0.3-0.3-0.3-0.4
			V24.4z M114.6,34.9v-2.6c0-0.4,0.3-0.7,0.7-0.7s0.6,0.3,0.6,0.7v2.6c0,0.4-0.3,0.7-0.6,0.7S114.6,35.3,114.6,34.9z"/>
		<path fill="#8494B2" d="M125.3,11.5c0-0.4,0.3-0.7,0.7-0.7h2.6c0.4,0,0.7,0.3,0.7,0.7c0,0.4-0.3,0.6-0.7,0.6H126
			C125.7,12.2,125.3,11.9,125.3,11.5z M129.8,0.7c0-0.4,0.3-0.7,0.7-0.7c0.4,0,0.7,0.3,0.7,0.7v2.7c0,0.4-0.3,0.6-0.7,0.6
			c-0.4,0-0.7-0.3-0.7-0.6V0.7z M129.8,6c0-0.4,0.3-0.6,0.7-0.6c0.4,0,0.7,0.3,0.7,0.6v2.7c0,0.4-0.3,0.7-0.7,0.7
			c-0.4,0-0.7-0.3-0.7-0.7V6z M129.8,11.3c0-0.4,0.3-0.7,0.7-0.7c0.4,0,0.7,0.3,0.7,0.7v2.6c0,0.4-0.3,0.7-0.7,0.7
			c-0.4,0-0.7-0.3-0.7-0.7V11.3z M129.8,16.5c0-0.4,0.3-0.7,0.7-0.7c0.4,0,0.7,0.3,0.7,0.7v2.7c0,0.4-0.3,0.6-0.7,0.6
			c-0.4,0-0.7-0.3-0.7-0.6V16.5z M129.8,21.8c0-0.4,0.3-0.6,0.7-0.6c0.4,0,0.7,0.3,0.7,0.6v2.7c0,0.4-0.3,0.7-0.7,0.7
			c-0.4,0-0.7-0.3-0.7-0.7V21.8z M129.8,27.1c0-0.4,0.3-0.7,0.7-0.7c0.4,0,0.7,0.3,0.7,0.7v2.6c0,0.4-0.3,0.7-0.7,0.7
			c-0.4,0-0.7-0.3-0.7-0.7V27.1z M129.8,32.5v-0.2c0-0.4,0.3-0.7,0.7-0.7c0.4,0,0.7,0.3,0.7,0.7v0.2c0,0.7,0.3,1.4,0.7,1.8
			c0.3,0.3,0.3,0.7,0,0.9c-0.2,0.1-0.3,0.2-0.5,0.2c-0.2,0-0.4-0.1-0.5-0.2C130.2,34.5,129.8,33.5,129.8,32.5z M131.6,11.5
			c0-0.4,0.3-0.7,0.7-0.7h2.6c0.4,0,0.7,0.3,0.7,0.7c0,0.4-0.3,0.6-0.7,0.6h-2.6C131.9,12.2,131.6,11.9,131.6,11.5z M133,35.8
			c0-0.4,0.3-0.6,0.7-0.6c0.1,0,0.1,0,0.1,0c0.4,0,0.6,0.3,0.6,0.7c0,0.4-0.3,0.6-0.6,0.6c-0.1,0-0.1,0-0.1,0
			C133.3,36.4,133,36.1,133,35.8z"/>
		<path fill="#8494B2" d="M148.8,3.3c0-0.4,0.3-0.7,0.7-0.7c0.4,0,0.7,0.3,0.7,0.7v1.2c0,0.4-0.3,0.7-0.7,0.7
			c-0.4,0-0.7-0.3-0.7-0.7V3.3z M148.8,11.5c0-0.4,0.3-0.7,0.7-0.7c0.4,0,0.7,0.3,0.7,0.7v2.7c0,0.3-0.3,0.7-0.7,0.7
			c-0.4,0-0.7-0.4-0.7-0.7V11.5z M148.8,16.9c0-0.4,0.3-0.7,0.7-0.7c0.4,0,0.7,0.3,0.7,0.7v2.7c0,0.3-0.3,0.7-0.7,0.7
			c-0.4,0-0.7-0.4-0.7-0.7V16.9z M148.8,22.2c0-0.4,0.3-0.7,0.7-0.7c0.4,0,0.7,0.3,0.7,0.7v2.7c0,0.3-0.3,0.7-0.7,0.7
			c-0.4,0-0.7-0.4-0.7-0.7V22.2z M148.8,27.6c0-0.4,0.3-0.7,0.7-0.7c0.4,0,0.7,0.3,0.7,0.7v2.7c0,0.3-0.3,0.6-0.7,0.6
			c-0.4,0-0.7-0.3-0.7-0.6V27.6z M148.8,33c0-0.4,0.3-0.7,0.7-0.7c0.4,0,0.7,0.3,0.7,0.7v2.7c0,0.4-0.3,0.7-0.7,0.7
			c-0.4,0-0.7-0.3-0.7-0.7V33z"/>
		<path fill="#8494B2" d="M161.6,23.6c0-0.4,0-0.8,0.1-1.2c0-0.3,0.3-0.6,0.6-0.6c0.4,0.1,0.6,0.4,0.6,0.7c0,0.4,0,0.7,0,1.1
			c0,0.5,0,1,0,1.5c0,0.3-0.2,0.6-0.5,0.7h-0.1c-0.4,0-0.6-0.3-0.6-0.6C161.6,24.7,161.6,24.1,161.6,23.6z M162.2,19.7
			c0.3-0.8,0.7-1.7,1.1-2.5c0.2-0.3,0.6-0.4,0.9-0.3c0.3,0.2,0.4,0.6,0.2,0.9c-0.4,0.7-0.8,1.5-1,2.2c-0.1,0.3-0.3,0.5-0.6,0.5
			c-0.1,0-0.1,0-0.2,0C162.2,20.4,162.1,20.1,162.2,19.7z M162.3,27.8c-0.1-0.3,0-0.7,0.4-0.8c0.3-0.1,0.7,0,0.7,0.4
			c0.4,0.8,0.7,1.5,1.1,2.2c0.2,0.3,0.1,0.7-0.2,0.9c-0.1,0.1-0.3,0.1-0.3,0.1c-0.3,0-0.5-0.1-0.6-0.3
			C163,29.6,162.6,28.7,162.3,27.8z M164.9,15c0.7-0.7,1.4-1.2,2.1-1.8c0.3-0.2,0.7-0.1,0.9,0.1c0.2,0.3,0.2,0.7-0.1,0.9
			c-0.7,0.5-1.4,1-1.9,1.6c-0.1,0.2-0.3,0.2-0.4,0.2c-0.3,0-0.4-0.1-0.5-0.2C164.8,15.7,164.8,15.3,164.9,15z M165.2,32.4
			c-0.2-0.2-0.2-0.6,0-0.9c0.3-0.3,0.7-0.3,0.9,0c0.6,0.6,1.2,1.1,2,1.6c0.3,0.2,0.3,0.6,0.1,0.9c-0.1,0.2-0.3,0.3-0.5,0.3
			c-0.2,0-0.3,0-0.3-0.1C166.5,33.7,165.8,33.1,165.2,32.4z M169.5,11.9c0.9-0.3,1.7-0.6,2.7-0.7c0.4-0.1,0.7,0.1,0.8,0.5
			c0,0.3-0.3,0.6-0.5,0.7c-0.9,0.2-1.7,0.5-2.3,0.7c-0.1,0-0.3,0-0.3,0c-0.3,0-0.5-0.1-0.6-0.4C169,12.4,169.2,12.1,169.5,11.9z
			 M169.7,35.5c-0.3-0.2-0.5-0.5-0.4-0.9c0.1-0.3,0.5-0.5,0.8-0.3c0.8,0.3,1.6,0.5,2.4,0.7c0.3,0.1,0.5,0.3,0.5,0.7
			c0,0.4-0.3,0.6-0.6,0.6c-0.1,0-0.1-0.1-0.1-0.1C171.4,36,170.6,35.8,169.7,35.5z M174.8,12.2c-0.4,0-0.7-0.3-0.7-0.6
			c0-0.4,0.4-0.6,0.7-0.6c0.9,0.1,1.9,0.1,2.8,0.3c0.3,0.1,0.6,0.5,0.5,0.8c-0.1,0.3-0.4,0.5-0.6,0.5c-0.1,0-0.1,0-0.2,0
			C176.5,12.3,175.7,12.3,174.8,12.2z M175.1,35c0.8,0,1.6-0.1,2.4-0.3c0.3-0.1,0.7,0.1,0.8,0.5c0.1,0.3-0.2,0.7-0.5,0.8
			c-0.9,0.3-1.8,0.4-2.7,0.4c-0.3,0-0.7-0.3-0.7-0.6C174.5,35.4,174.7,35,175.1,35z M179.6,13.3c-0.3-0.2-0.5-0.5-0.3-0.9
			c0.2-0.3,0.6-0.5,0.9-0.3c0.8,0.4,1.6,0.8,2.3,1.4c0.3,0.2,0.3,0.6,0.1,0.9c-0.1,0.2-0.3,0.3-0.5,0.3c-0.1,0-0.3-0.1-0.4-0.1
			C181.1,14.1,180.4,13.6,179.6,13.3z M179.9,33.9c0.7-0.3,1.5-0.8,2.1-1.3c0.2-0.2,0.6-0.2,0.9,0.1c0.2,0.3,0.2,0.7-0.1,0.9
			c-0.7,0.6-1.5,1-2.4,1.4c-0.1,0.1-0.2,0.1-0.3,0.1c-0.3,0-0.5-0.1-0.5-0.4C179.4,34.4,179.6,34,179.9,33.9z"/>
		<path fill="#8494B2" d="M190.9,16.6c0.2-1,0.6-1.9,1.2-2.7c0.3-0.3,0.7-0.4,0.9-0.1c0.3,0.2,0.3,0.6,0.1,0.9
			c-0.5,0.6-0.8,1.3-0.9,2c-0.1,0.3-0.4,0.5-0.7,0.5h-0.1C191.1,17.3,190.9,16.9,190.9,16.6z M191.4,19.5c-0.2-0.3-0.1-0.7,0.3-0.9
			c0.4-0.2,0.7-0.1,0.9,0.3c0.4,0.6,0.9,1.1,1.6,1.6c0.3,0.2,0.4,0.6,0.2,0.9c-0.1,0.2-0.3,0.3-0.5,0.3c-0.2,0-0.3-0.1-0.4-0.1
			C192.5,21,191.9,20.3,191.4,19.5z M192.5,34.2c-0.3-0.2-0.4-0.6-0.3-0.9c0.2-0.3,0.6-0.4,0.9-0.3c0.7,0.4,1.4,0.8,2.2,1.1
			c0.3,0.2,0.5,0.5,0.4,0.9c-0.1,0.3-0.4,0.4-0.6,0.4c-0.1,0-0.2-0.1-0.2-0.1C194,35,193.2,34.6,192.5,34.2z M194.4,12.1
			c0.8-0.4,1.6-0.8,2.6-1c0.3-0.1,0.7,0.2,0.8,0.5c0.1,0.4-0.2,0.7-0.5,0.8c-0.8,0.2-1.6,0.5-2.2,0.9c-0.1,0.1-0.2,0.1-0.3,0.1
			c-0.3,0-0.5-0.2-0.6-0.4C193.9,12.7,194,12.3,194.4,12.1z M195.9,22.8c-0.3-0.1-0.5-0.5-0.4-0.8c0.1-0.3,0.5-0.5,0.8-0.4
			c0.7,0.3,1.6,0.5,2.4,0.7c0.3,0.1,0.6,0.4,0.5,0.8c-0.1,0.3-0.3,0.5-0.6,0.5c-0.1,0-0.1,0-0.2-0.1
			C197.6,23.3,196.7,23.1,195.9,22.8z M197,35.4c0.1-0.4,0.4-0.6,0.8-0.6c0.6,0.1,1.1,0.2,1.8,0.2c0.2,0,0.4,0,0.7,0
			c0.4,0,0.7,0.3,0.7,0.6c0,0.4-0.3,0.7-0.6,0.7c-0.3,0-0.5,0.1-0.7,0.1c-0.7,0-1.4-0.1-2-0.2C197.2,36.1,197,35.8,197,35.4z
			 M199.7,12.2c-0.4,0-0.6-0.3-0.6-0.7c0-0.4,0.3-0.7,0.7-0.6c1,0,1.9,0.2,2.7,0.4c0.4,0.1,0.6,0.5,0.5,0.8
			c-0.1,0.3-0.4,0.5-0.6,0.5c-0.1,0-0.2,0-0.2-0.1C201.3,12.3,200.5,12.2,199.7,12.2z M201,24.1c-0.4-0.1-0.6-0.5-0.5-0.8
			c0.1-0.3,0.4-0.6,0.8-0.5c0.9,0.3,1.8,0.5,2.6,0.8c0.3,0.1,0.5,0.5,0.4,0.8c-0.1,0.3-0.4,0.4-0.6,0.4c-0.1,0-0.2,0-0.3-0.1
			C202.7,24.6,201.9,24.3,201,24.1z M202.6,34.6c0.8-0.3,1.6-0.6,2.2-1c0.3-0.2,0.7-0.1,0.9,0.2s0.1,0.7-0.2,0.9
			c-0.7,0.5-1.6,0.8-2.5,1.1c-0.1,0-0.2,0-0.2,0c-0.3,0-0.5-0.2-0.6-0.4C202.1,35,202.3,34.7,202.6,34.6z M204.3,13.5
			c-0.3-0.2-0.4-0.6-0.3-0.9c0.2-0.3,0.6-0.4,0.9-0.3c0.8,0.5,1.6,0.9,2.3,1.4c0.3,0.2,0.4,0.6,0.2,0.9c-0.1,0.2-0.3,0.3-0.5,0.3
			c-0.2,0-0.3-0.1-0.4-0.1C205.8,14.4,205.1,13.9,204.3,13.5z M205.6,26c-0.3-0.2-0.4-0.6-0.2-0.9c0.2-0.3,0.6-0.4,0.9-0.2
			c0.8,0.6,1.5,1.3,1.9,2.2c0.2,0.3,0.1,0.7-0.3,0.9c-0.1,0.1-0.2,0.1-0.3,0.1c-0.3,0-0.5-0.2-0.6-0.4
			C206.8,27.1,206.3,26.5,205.6,26z M206.6,32c0.5-0.7,0.8-1.4,0.9-2.1c0-0.4,0.4-0.6,0.7-0.6c0.3,0.1,0.6,0.4,0.6,0.7
			c-0.2,1-0.5,1.9-1.1,2.7c-0.1,0.2-0.3,0.3-0.5,0.3c-0.1,0-0.3-0.1-0.4-0.2C206.4,32.6,206.4,32.2,206.6,32z"/>
	</g>
	<circle fill="#8494B2" cx="13.4" cy="48.8" r="3.8"/>
	<circle fill="#8494B2" cx="32.8" cy="49.1" r="1.1"/>
	<circle fill="#8494B2" cx="23.9" cy="49.3" r="2.3"/>
</g>
</svg>
